<?xml version="1.0" encoding="utf-8"?><!-- Generator: Adobe Illustrator 25.2.1, SVG Export Plug-In . SVG Version: 6.00 Build 0)  --><svg xmlns="http://www.w3.org/2000/svg" xmlns:xlink="http://www.w3.org/1999/xlink" viewBox="0 0 24 24" width="24px" height="24px"><style type="text/css">	.st0{opacity:0.35;enable-background:new    ;}</style><g id="Pencil_1_">	<path class="st0" d="M20,4c-1.3-1.3-3.5-1.3-4.8,0l-11,11c-0.3,0.3-0.5,0.7-0.6,1.1L3,19.7c-0.1,0.8,0.5,1.4,1.3,1.3l3.5-0.6		c0.4-0.1,0.8-0.3,1.1-0.6L20,8.8C21.3,7.4,21.3,5.3,20,4z"/></g><g id="Pencil_Details">	<polygon points="19.8,9 17.8,10.9 13,6.2 15,4.2 	"/>	<path d="M6.5,20.6L4.3,21c-0.8,0.1-1.4-0.5-1.3-1.3l0.4-2.2L6.5,20.6z"/></g></svg>