<?xml version="1.0" encoding="utf-8"?><!-- Generator: Adobe Illustrator 25.1.0, SVG Export Plug-In . SVG Version: 6.00 Build 0)  --><svg xmlns="http://www.w3.org/2000/svg" xmlns:xlink="http://www.w3.org/1999/xlink" viewBox="0 0 24 24" width="24px" height="24px"><style type="text/css">	.st0{opacity:0.35;enable-background:new    ;}</style><path d="M21.4,18.6c-0.3-0.3-1.9-1.9-2.8-2.8c-0.7,1.1-1.7,2.1-2.8,2.8c0.9,0.9,2.5,2.5,2.8,2.8c0.8,0.8,2,0.8,2.8,0	C22.2,20.6,22.2,19.4,21.4,18.6z"/><path class="st0" d="M11,2c5,0,9,4,9,9c0,1.8-0.5,3.4-1.4,4.8l-0.3,2.5l-2.5,0.3c-1.4,0.9-3.1,1.5-4.9,1.5c-5,0-9-4-9-9S6,2,11,2z"	/></svg>