<?xml version="1.0" encoding="utf-8"?><!-- Generator: Adobe Illustrator 25.2.1, SVG Export Plug-In . SVG Version: 6.00 Build 0)  --><svg xmlns="http://www.w3.org/2000/svg" xmlns:xlink="http://www.w3.org/1999/xlink" viewBox="0 0 24 24" width="24px" height="24px"><style type="text/css">	.st0{opacity:0.35;enable-background:new    ;}</style><g id="Trash_Can">	<path class="st0" d="M15.4,22H8.6c-1.5,0-2.8-1.1-3-2.6L4.1,6.8C4,6.4,4.4,6,4.8,6h14.5c0.4,0,0.7,0.4,0.7,0.8l-1.6,12.6		C18.1,20.9,16.9,22,15.4,22z"/></g><g id="Cap">	<g>		<path d="M16,4H8V3c0-0.6,0.4-1,1-1h6c0.6,0,1,0.4,1,1V4z"/>		<path d="M19,3C18.4,3,5.6,3,5,3C3.9,3,3,3.9,3,5s0.9,2,2,2c0.6,0,13.4,0,14,0c1.1,0,2-0.9,2-2S20.1,3,19,3z"/>	</g></g></svg>